<svg fill="current" xmlns="http://www.w3.org/2000/svg" viewBox="0 0 63 63" style="enable-background:new 0 0 63 63;">
		<path id="path-1_17_" d="M61.5,50.005c-0.828,0-1.5-0.672-1.5-1.5V37.419c0-16.22-12.127-28.926-27.608-28.926
			C16.455,8.493,3,21.739,3,37.419v11.086c0,0.828-0.672,1.5-1.5,1.5S0,49.333,0,48.505V37.419C0,20.113,14.829,5.492,32.382,5.492
			C49.556,5.492,63,19.516,63,37.419v11.086C63,49.333,62.328,50.005,61.5,50.005z"/>
		<path id="path-2_16_" d="M59,54.007c0,1.933-1.567,3.501-3.5,3.501h-5c-1.933,0-3.5-1.568-3.5-3.501V36.001
			c0-1.934,1.567-3.501,3.5-3.501h5c1.933,0,3.5,1.567,3.5,3.501V54.007z M56,36.001c0-0.276-0.224-0.5-0.5-0.5h-5
			c-0.276,0-0.5,0.224-0.5,0.5v18.006c0,0.276,0.224,0.5,0.5,0.5h5c0.276,0,0.5-0.224,0.5-0.5V36.001z"/>
		<path id="path-3_16_" d="M17,54.007c0,1.933-1.567,3.501-3.5,3.501h-5c-1.933,0-3.5-1.568-3.5-3.501V36.001
			C5,34.067,6.567,32.5,8.5,32.5h5c1.933,0,3.5,1.567,3.5,3.501V54.007z M14,36.001c0-0.276-0.224-0.5-0.5-0.5h-5
			c-0.276,0-0.5,0.224-0.5,0.5v18.006c0,0.276,0.224,0.5,0.5,0.5h5c0.276,0,0.5-0.224,0.5-0.5V36.001z"/>
</svg>
